<svg viewBox="0 0 42.5 289.5" fill="none" xmlns="http://www.w3.org/2000/svg" xmlns:xlink="http://www.w3.org/1999/xlink" id="45c5c356" x="0" y="0"><g id="Desktop - 4" data-node-id="39:24" clip-path="url(#clip0_39_24)"><g id="arrow 1" data-node-id="48:874"><rect x="0.5" y="35.5" width="35" height="35" rx="5" transform="rotate(-90, 0.5, 35.5)" fill="#828282"/><path id="Vector" data-node-id="48:875" d="M15.0833,10.708c0,0.438 -0.1458,0.729 -0.4375,1.021l-7.2916,7.292c-0.5834,0.583 -1.4584,0.583 -2.0417,0c-0.5833,-0.584 -0.5833,-1.459 0,-2.042l7.2917,-7.292c0.5833,-0.583 1.4583,-0.583 2.0416,0c0.2917,0.292 0.4375,0.584 0.4375,1.021z" fill="white"/><path id="Vector_2" data-node-id="48:876" d="M15.0833,25.292c0,0.437 -0.1458,0.729 -0.4375,1.02c-0.5833,0.584 -1.4583,0.584 -2.0416,0l-7.2917,-7.291c-0.5833,-0.583 -0.5833,-1.458 0,-2.042c0.5833,-0.583 1.4583,-0.583 2.0417,0l7.2916,7.292c0.2917,0.292 0.4375,0.583 0.4375,1.021z" fill="white"/><path id="Vector_3" data-node-id="48:877" d="M31.125,18c0,0.875 -0.5833,1.458 -1.4583,1.458h-23.3334c-0.875,0 -1.4583,-0.583 -1.4583,-1.458c0,-0.875 0.5833,-1.458 1.4583,-1.458h23.3334c0.875,0 1.4583,0.583 1.4583,1.458z" fill="white"/></g><path id="Line 4" data-node-id="54:900" d="M42,0.5v289" stroke="black"/></g><defs><clipPath id="clip0_39_24"><rect width="1440" height="1024" fill="white" x="-66.5" y="-158.5"/></clipPath></defs></svg>